<svg width="115" height="120" viewBox="0 0 115 120" fill="none" xmlns="http://www.w3.org/2000/svg">
<g filter="url(#filter0_d_40_80)">
<ellipse cx="29.8161" cy="31.7437" rx="29.8161" ry="31.7437" transform="matrix(0.616707 0.787193 -0.762737 0.646709 62.8039 17)" fill="url(#paint0_linear_40_80)"/>
</g>
<g filter="url(#filter1_i_40_80)">
<path d="M103.546 79.8944C103.454 80.0609 103.206 80.3273 102.493 80.5653C101.774 80.8054 100.735 80.9608 99.347 80.9792C96.5774 81.0161 92.773 80.5068 88.1645 79.462C78.9725 77.3782 66.8985 73.2382 54.1451 67.5223C41.3917 61.8063 30.4514 55.6314 23.0745 50.2892C19.376 47.6109 16.6378 45.1878 15.0078 43.1791C14.1906 42.1721 13.7055 41.3337 13.488 40.6742C13.2723 40.0199 13.3609 39.6822 13.4537 39.5156C13.5465 39.3491 13.7944 39.0828 14.5072 38.8447C15.2259 38.6047 16.2645 38.4493 17.653 38.4308C20.4226 38.3939 24.227 38.9032 28.8355 39.948C38.0275 42.0318 50.1015 46.1718 62.8549 51.8878C75.6083 57.6037 86.5486 63.7786 93.9255 69.1208C97.624 71.7991 100.362 74.2222 101.992 76.2309C102.809 77.2379 103.295 78.0763 103.512 78.7358C103.728 79.3901 103.639 79.7278 103.546 79.8944Z" stroke="url(#paint1_linear_40_80)" stroke-width="3"/>
</g>
<defs>
<filter id="filter0_d_40_80" x="22.575" y="29.8174" width="68.8092" height="70.3652" filterUnits="userSpaceOnUse" color-interpolation-filters="sRGB">
<feFlood flood-opacity="0" result="BackgroundImageFix"/>
<feColorMatrix in="SourceAlpha" type="matrix" values="0 0 0 0 0 0 0 0 0 0 0 0 0 0 0 0 0 0 127 0" result="hardAlpha"/>
<feOffset dy="4"/>
<feGaussianBlur stdDeviation="2"/>
<feComposite in2="hardAlpha" operator="out"/>
<feColorMatrix type="matrix" values="0 0 0 0 0 0 0 0 0 0 0 0 0 0 0 0 0 0 0.25 0"/>
<feBlend mode="normal" in2="BackgroundImageFix" result="effect1_dropShadow_40_80"/>
<feBlend mode="normal" in="SourceGraphic" in2="effect1_dropShadow_40_80" result="shape"/>
</filter>
<filter id="filter1_i_40_80" x="11.8032" y="36.982" width="93.3937" height="49.4459" filterUnits="userSpaceOnUse" color-interpolation-filters="sRGB">
<feFlood flood-opacity="0" result="BackgroundImageFix"/>
<feBlend mode="normal" in="SourceGraphic" in2="BackgroundImageFix" result="shape"/>
<feColorMatrix in="SourceAlpha" type="matrix" values="0 0 0 0 0 0 0 0 0 0 0 0 0 0 0 0 0 0 127 0" result="hardAlpha"/>
<feOffset dy="4"/>
<feGaussianBlur stdDeviation="2"/>
<feComposite in2="hardAlpha" operator="arithmetic" k2="-1" k3="1"/>
<feColorMatrix type="matrix" values="0 0 0 0 0 0 0 0 0 0 0 0 0 0 0 0 0 0 0.25 0"/>
<feBlend mode="normal" in2="shape" result="effect1_innerShadow_40_80"/>
</filter>
<linearGradient id="paint0_linear_40_80" x1="-28.2617" y1="63.4875" x2="60.1384" y2="52.1318" gradientUnits="userSpaceOnUse">
<stop stop-color="#390265"/>
<stop offset="1" stop-color="#FA7B7B"/>
</linearGradient>
<linearGradient id="paint1_linear_40_80" x1="-151.5" y1="-12" x2="162.462" y2="143.358" gradientUnits="userSpaceOnUse">
<stop stop-color="white"/>
<stop offset="1" stop-color="#944949"/>
</linearGradient>
</defs>
</svg>
