<svg width="669" height="645" viewBox="0 0 669 645" fill="none" xmlns="http://www.w3.org/2000/svg">
<path d="M563.872 292.721C491.455 259.618 419.039 226.514 353.743 216.405C288.447 206.296 230.272 219.182 214.937 272.685C199.602 326.189 227.106 420.309 254.611 514.43L563.872 292.721Z" fill="url(#paint0_linear_72_6)"/>
<g filter="url(#filter0_b_72_6)">
<path d="M112.173 644.406C88.978 564.634 65.7828 484.861 100.039 434.309C134.296 383.757 226.004 362.426 282.889 342.26C339.775 322.095 361.837 303.094 374.88 260.863C387.924 218.632 391.948 153.17 439.344 125.595C486.741 98.021 577.509 108.334 668.277 118.647L112.173 644.406Z" fill="url(#paint1_linear_72_6)"/>
</g>
<defs>
<filter id="filter0_b_72_6" x="78.6967" y="103.886" width="593.58" height="544.521" filterUnits="userSpaceOnUse" color-interpolation-filters="sRGB">
<feFlood flood-opacity="0" result="BackgroundImageFix"/>
<feGaussianBlur in="BackgroundImageFix" stdDeviation="2"/>
<feComposite in2="SourceAlpha" operator="in" result="effect1_backgroundBlur_72_6"/>
<feBlend mode="normal" in="SourceGraphic" in2="effect1_backgroundBlur_72_6" result="shape"/>
</filter>
<linearGradient id="paint0_linear_72_6" x1="-40.5" y1="78.5" x2="340" y2="419.5" gradientUnits="userSpaceOnUse">
<stop stop-color="white"/>
<stop offset="0.777137" stop-color="#020735"/>
<stop offset="1" stop-color="#04001C"/>
</linearGradient>
<linearGradient id="paint1_linear_72_6" x1="-133.5" y1="262.5" x2="128" y2="548.5" gradientUnits="userSpaceOnUse">
<stop stop-color="white"/>
<stop offset="0.905265" stop-color="#020735"/>
<stop offset="1" stop-color="#04001C"/>
</linearGradient>
</defs>
</svg>
