<svg width="1438" height="126" viewBox="0 0 1438 126" fill="none" xmlns="http://www.w3.org/2000/svg">
<path d="M0.505554 0V114.779C64.8394 98.8774 129.173 82.9755 176.385 87.8445C223.596 92.7135 253.684 118.354 303.465 119.677C353.245 121 422.718 98.006 478.327 94.2721C533.937 90.5382 575.683 106.064 631.84 107.127C687.997 108.191 758.564 94.7913 817.885 93.3539C877.207 91.9166 925.284 102.441 974.448 111.719C1023.61 120.996 1073.86 129.026 1121.86 124.88C1169.86 120.734 1215.6 104.413 1272.32 100.7C1329.05 96.9871 1396.76 105.883 1464.47 114.779V0H0.505554Z" fill="url(#paint0_linear_140_14)"/>
<defs>
<linearGradient id="paint0_linear_140_14" x1="732.487" y1="449" x2="732.487" y2="-4.47964e-06" gradientUnits="userSpaceOnUse">
<stop stop-color="#EFE7E7"/>
<stop offset="0.901307" stop-color="#020735"/>
<stop offset="1" stop-color="#04001C"/>
</linearGradient>
</defs>
</svg>
