<svg width="901" height="242" viewBox="0 0 901 242" fill="none" xmlns="http://www.w3.org/2000/svg">
<g filter="url(#filter0_b_61_16)">
<path d="M900.59 242L918 -7.69455e-06C863.739 10.4679 809.477 71.2346 766.651 72.5653C723.825 73.896 686.321 43.2521 639.209 72.5653C592.096 101.878 552.315 197.062 492.776 203.513C433.237 209.965 276.602 206.327 222.898 188.889C169.195 171.452 125.698 190.74 77.9645 218.641C30.2313 246.542 44.303 204.852 -2.62881e-05 242H900.59Z" fill="url(#paint0_linear_61_16)"/>
</g>
<path d="M183 238.265C211.881 190.718 240.762 143.171 288.774 121.041C336.786 98.9104 403.929 102.197 450.79 116.143C497.65 130.089 524.23 154.695 557.08 150.429C589.93 146.162 629.051 113.022 674.722 111.245C720.392 109.467 772.611 139.052 815.582 165.449C858.553 191.846 892.277 215.056 926 238.265H183Z" fill="url(#paint1_linear_61_16)" fill-opacity="0.7"/>
<path d="M20 298.878C76.9124 252.917 133.825 206.956 204.106 178.286C274.386 149.616 358.035 138.237 408.997 148.429C459.959 158.621 478.235 190.384 531.487 204.653C584.739 218.922 672.968 215.698 740.09 206.98C807.213 198.261 853.23 184.048 907.864 198.449C962.498 212.85 1025.75 255.864 1089 298.878H20Z" fill="url(#paint2_linear_61_16)" fill-opacity="0.5"/>
<defs>
<filter id="filter0_b_61_16" x="-4.00003" y="-4" width="926" height="250" filterUnits="userSpaceOnUse" color-interpolation-filters="sRGB">
<feFlood flood-opacity="0" result="BackgroundImageFix"/>
<feGaussianBlur in="BackgroundImageFix" stdDeviation="2"/>
<feComposite in2="SourceAlpha" operator="in" result="effect1_backgroundBlur_61_16"/>
<feBlend mode="normal" in="SourceGraphic" in2="effect1_backgroundBlur_61_16" result="shape"/>
</filter>
<linearGradient id="paint0_linear_61_16" x1="667.696" y1="296.965" x2="294.483" y2="-532.066" gradientUnits="userSpaceOnUse">
<stop stop-color="#020735"/>
<stop offset="1.0001" stop-color="white"/>
</linearGradient>
<linearGradient id="paint1_linear_61_16" x1="-315.5" y1="-763.5" x2="343.5" y2="380.5" gradientUnits="userSpaceOnUse">
<stop stop-color="white"/>
<stop offset="1" stop-color="#020735"/>
</linearGradient>
<linearGradient id="paint2_linear_61_16" x1="103713" y1="5384.81" x2="86660.2" y2="45650.9" gradientUnits="userSpaceOnUse">
<stop offset="0.05" stop-color="white"/>
<stop offset="0.95" stop-color="#020735"/>
</linearGradient>
</defs>
</svg>
